<svg width="24" height="18" viewBox="0 0 24 18" fill="none"
  xmlns="http://www.w3.org/2000/svg">
  <path d="M0 0.000976562H24V18.001H0V0.000976562Z" fill="#012169"/>
  <path d="M2.8125 0.000976562L11.9625 6.78848L21.075 0.000976562H24V2.32598L15 9.03848L24 15.7135V18.001H21L12 11.2885L3.0375 18.001H0V15.751L8.9625 9.07598L0 2.40098V0.000976562H2.8125Z" fill="white"/>
  <path d="M15.9 10.5385L24 16.501V18.001L13.8375 10.5385H15.9ZM9 11.2885L9.225 12.601L2.025 18.001H0L9 11.2885ZM24 0.000976562V0.113477L14.6625 7.16348L14.7375 5.51348L22.125 0.000976562H24ZM0 0.000976562L8.9625 6.60098H6.7125L0 1.57598V0.000976562Z" fill="#C8102E"/>
  <path d="M9.0375 0.000976562V18.001H15.0375V0.000976562H9.0375ZM0 6.00098V12.001H24V6.00098H0Z" fill="white"/>
  <path d="M0 7.23848V10.8385H24V7.23848H0ZM10.2375 0.000976562V18.001H13.8375V0.000976562H10.2375Z" fill="#C8102E"/>
</svg>
